<svg width="20" height="17" viewBox="0 0 20 17" fill="#151515" xmlns="http://www.w3.org/2000/svg">
    <path
        d="M18.64 7.62473H3.67751L8.75875 2.46402C9.13363 2.08328 9.13363 1.4661 8.75875 1.08536C8.38388 0.704619 7.77596 0.704619 7.40108 1.08536L0.681122 7.91041C0.306244 8.29115 0.306244 8.90857 0.681122 9.28907L7.40108 16.1141C7.58852 16.3045 7.83428 16.3998 8.08004 16.3998C8.32556 16.3998 8.57132 16.3045 8.75875 16.1141C9.13363 15.7334 9.13363 15.116 8.75875 14.7355L3.67751 9.57475H18.64C19.1701 9.57475 19.6 9.13819 19.6 8.59974C19.6 8.06129 19.1701 7.62473 18.64 7.62473Z" />
</svg>