<svg xmlns="http://www.w3.org/2000/svg" viewBox="0 0 19 16" fill="#242C3F">
  <path fill-rule="evenodd"
    d="M13.75 1.667c0 .916-.75 1.666-1.667 1.666-.916 0-1.666-.75-1.666-1.666 0-.917.75-1.667 1.666-1.667C13 0 13.75.75 13.75 1.667ZM1.25 12.5a2.07 2.07 0 0 0 2.083 2.083A2.07 2.07 0 0 0 5.417 12.5a2.07 2.07 0 0 0-2.084-2.083A2.07 2.07 0 0 0 1.25 12.5ZM0 12.5c0-1.833 1.5-3.333 3.333-3.333 1.834 0 3.334 1.5 3.334 3.333 0 1.833-1.5 3.333-3.334 3.333A3.343 3.343 0 0 1 0 12.5Zm14.959-5.518c0-.412-.3-.765-.708-.825A4.105 4.105 0 0 1 11.917 5L10.29 3.417a1.5 1.5 0 0 0-1.124-.5c-.459 0-.875.166-1.167.5L5.708 5.708c-.291.292-.5.709-.5 1.167 0 .458.209.875.5 1.208l2.625 2.334v3.333a.833.833 0 1 0 1.667 0V9.795c0-.27-.107-.527-.297-.717L8.167 7.542l1.958-2 .625.625c.843.875 1.958 1.452 3.256 1.64a.834.834 0 0 0 .953-.825ZM12.917 12.5A2.07 2.07 0 0 0 15 14.583a2.07 2.07 0 0 0 2.083-2.083A2.07 2.07 0 0 0 15 10.417a2.07 2.07 0 0 0-2.083 2.083Zm-1.25 0c0-1.833 1.5-3.333 3.333-3.333 1.833 0 3.333 1.5 3.333 3.333 0 1.833-1.5 3.333-3.333 3.333a3.343 3.343 0 0 1-3.333-3.333Z"
    clip-rule="evenodd" />
</svg>