<svg width="22" height="19" viewBox="0 0 22 19" fill="#151515" xmlns="http://www.w3.org/2000/svg">
    <path fill-rule="evenodd" clip-rule="evenodd"
        d="M16.5 2C16.5 3.1 15.6 4 14.5 4C13.4 4 12.5 3.1 12.5 2C12.5 0.9 13.4 0 14.5 0C15.6 0 16.5 0.9 16.5 2ZM1.5 15C1.5 16.3929 2.60714 17.5 4 17.5C5.39286 17.5 6.5 16.3929 6.5 15C6.5 13.6071 5.39286 12.5 4 12.5C2.60714 12.5 1.5 13.6071 1.5 15ZM0 15C0 12.8 1.8 11 4 11C6.2 11 8 12.8 8 15C8 17.2 6.2 19 4 19C1.8 19 0 17.2 0 15ZM17.9502 8.3779C17.9502 7.8839 17.5902 7.4609 17.1012 7.3889C15.9752 7.2219 15.0242 6.7249 14.3002 5.9999L12.3492 4.0999C12.0502 3.7499 11.5502 3.4999 11.0002 3.4999C10.4502 3.4999 9.9502 3.6999 9.6002 4.0999L6.8502 6.8499C6.5002 7.1999 6.2502 7.6999 6.2502 8.2499C6.2502 8.7999 6.5002 9.2999 6.8502 9.6999L10.0002 12.4999V16.4999C10.0002 17.0529 10.4482 17.4999 11.0002 17.4999C11.5532 17.4999 12.0002 17.0529 12.0002 16.4999V11.7539C12.0002 11.4309 11.8722 11.1219 11.6432 10.8939L9.8002 9.0499L12.1502 6.6499L12.9002 7.3999C13.9112 8.4509 15.2492 9.1429 16.8072 9.3689C17.4102 9.4569 17.9502 8.9859 17.9502 8.3779ZM15.5 15C15.5 16.3929 16.6071 17.5 18 17.5C19.3929 17.5 20.5 16.3929 20.5 15C20.5 13.6071 19.3929 12.5 18 12.5C16.6071 12.5 15.5 13.6071 15.5 15ZM14 15C14 12.8 15.8 11 18 11C20.2 11 22 12.8 22 15C22 17.2 20.2 19 18 19C15.8 19 14 17.2 14 15Z" />
</svg>