<svg width="20" height="19" viewBox="0 0 20 19" fill="#151515" xmlns="http://www.w3.org/2000/svg">
    <path fill-rule="evenodd" clip-rule="evenodd"
        d="M14.5833 2.00016C14.5833 2.91683 13.8333 3.66683 12.9167 3.66683C12 3.66683 11.25 2.91683 11.25 2.00016C11.25 1.0835 12 0.333496 12.9167 0.333496C13.8333 0.333496 14.5833 1.0835 14.5833 2.00016ZM1.66668 18.6668C2.12691 18.6668 2.50001 18.2937 2.50001 17.8335C2.50001 17.3733 2.12691 17.0002 1.66668 17.0002C1.20644 17.0002 0.833344 17.3733 0.833344 17.8335C0.833344 18.2937 1.20644 18.6668 1.66668 18.6668ZM9.16668 17.8335C9.16668 18.2937 8.79358 18.6668 8.33334 18.6668C7.87311 18.6668 7.50001 18.2937 7.50001 17.8335C7.50001 17.3733 7.87311 17.0002 8.33334 17.0002C8.79358 17.0002 9.16668 17.3733 9.16668 17.8335ZM2.08334 12.8335C2.08334 13.9942 3.00596 14.9168 4.16668 14.9168C5.32739 14.9168 6.25001 13.9942 6.25001 12.8335C6.25001 11.6728 5.32739 10.7502 4.16668 10.7502C3.00596 10.7502 2.08334 11.6728 2.08334 12.8335ZM0.833344 12.8335C0.833344 11.0002 2.33334 9.50016 4.16668 9.50016C6.00001 9.50016 7.50001 11.0002 7.50001 12.8335C7.50001 14.6668 6.00001 16.1668 4.16668 16.1668C2.33334 16.1668 0.833344 14.6668 0.833344 12.8335ZM15.8333 17.8335C15.8333 18.2937 15.4602 18.6668 15 18.6668C14.5398 18.6668 14.1667 18.2937 14.1667 17.8335C14.1667 17.3733 14.5398 17.0002 15 17.0002C15.4602 17.0002 15.8333 17.3733 15.8333 17.8335ZM15.0843 6.4909C15.4918 6.5509 15.7918 6.9034 15.7918 7.31506C15.7918 7.82173 15.3418 8.21423 14.8393 8.1409C13.541 7.95256 12.426 7.3759 11.5835 6.50006L10.9585 5.87506L9.00017 7.87506L10.536 9.41173C10.7268 9.60173 10.8335 9.85923 10.8335 10.1284V14.0834C10.8335 14.5442 10.461 14.9167 10.0002 14.9167C9.54017 14.9167 9.16684 14.5442 9.16684 14.0834V10.7501L6.54184 8.41673C6.25017 8.0834 6.04184 7.66673 6.04184 7.2084C6.04184 6.75006 6.25017 6.3334 6.54184 6.04173L8.83351 3.75006C9.12517 3.41673 9.54184 3.25006 10.0002 3.25006C10.4585 3.25006 10.8752 3.4584 11.1243 3.75006L12.7502 5.3334C13.3535 5.93756 14.146 6.35173 15.0843 6.4909ZM5.83334 17.8335C5.83334 18.2937 5.46025 18.6668 5.00001 18.6668C4.53977 18.6668 4.16668 18.2937 4.16668 17.8335C4.16668 17.3733 4.53977 17.0002 5.00001 17.0002C5.46025 17.0002 5.83334 17.3733 5.83334 17.8335ZM13.75 12.8335C13.75 13.9942 14.6726 14.9168 15.8333 14.9168C16.9941 14.9168 17.9167 13.9942 17.9167 12.8335C17.9167 11.6728 16.9941 10.7502 15.8333 10.7502C14.6726 10.7502 13.75 11.6728 13.75 12.8335ZM12.5 12.8335C12.5 11.0002 14 9.50016 15.8333 9.50016C17.6667 9.50016 19.1667 11.0002 19.1667 12.8335C19.1667 14.6668 17.6667 16.1668 15.8333 16.1668C14 16.1668 12.5 14.6668 12.5 12.8335ZM12.5 17.8335C12.5 18.2937 12.1269 18.6668 11.6667 18.6668C11.2064 18.6668 10.8333 18.2937 10.8333 17.8335C10.8333 17.3733 11.2064 17.0002 11.6667 17.0002C12.1269 17.0002 12.5 17.3733 12.5 17.8335ZM18.3333 18.6668C18.7936 18.6668 19.1667 18.2937 19.1667 17.8335C19.1667 17.3733 18.7936 17.0002 18.3333 17.0002C17.8731 17.0002 17.5 17.3733 17.5 17.8335C17.5 18.2937 17.8731 18.6668 18.3333 18.6668Z" />
</svg>