<svg width="20" height="21" viewBox="0 0 20 21" fill="#151515" xmlns="http://www.w3.org/2000/svg">
    <path fill-rule="evenodd" clip-rule="evenodd"
        d="M9.84344 3.6438C10.6928 3.41425 11.1999 2.53126 10.9704 1.68187C10.7408 0.833267 9.85864 0.326187 9.00924 0.555733C8.15984 0.784479 7.65276 1.66747 7.88231 2.51687C8.11105 3.36627 8.99404 3.87335 9.84344 3.6438ZM3.51054 12.398C4.58629 12.1077 5.67163 12.7315 5.96196 13.8065C6.25309 14.8822 5.62924 15.9675 4.55429 16.2587C3.47855 16.549 2.39321 15.926 2.10208 14.8502C1.81094 13.7745 2.4348 12.6891 3.51054 12.398ZM4.86702 17.4168C6.56582 16.9577 7.57998 15.1925 7.12088 13.4937C6.66099 11.7949 4.89581 10.7808 3.19702 11.2399C1.49902 11.699 0.484861 13.4641 0.943951 15.1637C1.40304 16.8617 3.16822 17.8759 4.86702 17.4168ZM8.09274 10.8385L4.65755 9.74198C3.98731 9.52763 3.69618 8.74062 4.06569 8.14156L6.20598 4.67918C6.60429 4.03534 7.4073 3.7682 8.11113 4.04733L13.2275 6.07005C13.5362 6.19162 13.7058 6.52434 13.6226 6.84507C13.5274 7.21218 13.1435 7.42333 12.7828 7.30576L8.75658 5.95168L7.08657 8.65824L9.0997 9.43245C9.42042 9.56202 9.65556 9.84196 9.72915 10.1795L10.357 13.058C10.4498 13.4827 10.1922 13.9058 9.77314 14.0194C9.33484 14.1377 8.88455 13.8762 8.77017 13.4379L8.09274 10.8385ZM14.3849 9.28068C15.4607 8.98955 16.5468 9.6142 16.8371 10.6891C17.1275 11.7649 16.5036 12.8502 15.4287 13.1414C14.3529 13.4317 13.2676 12.8086 12.9765 11.7329C12.6853 10.6572 13.31 9.57181 14.3849 9.28068ZM11.8183 12.0464C12.2774 13.7444 14.0434 14.7586 15.7414 14.2995C17.4402 13.8404 18.4544 12.0752 17.9953 10.3764C17.5362 8.67761 15.7702 7.66345 14.0722 8.12254C12.3734 8.58163 11.3592 10.3468 11.8183 12.0464ZM18.793 13.881C19.1145 13.7946 19.4423 13.9851 19.5279 14.305C19.6135 14.6249 19.4238 14.9543 19.1039 15.0399C18.6145 15.1714 18.45 15.4309 18.2015 15.8241C17.9054 16.2917 17.5369 16.8732 16.5957 17.1256C15.6556 17.3788 15.0485 17.0603 14.5585 16.8033L14.5544 16.8012L14.5497 16.7987C14.1401 16.5841 13.8684 16.4417 13.3808 16.5735C12.8933 16.7041 12.7295 16.9634 12.4813 17.3562L12.4808 17.3569L12.4798 17.3585C12.1839 17.8258 11.8167 18.4055 10.8767 18.6576C9.93794 18.91 9.32757 18.5906 8.83772 18.3324C8.42712 18.1165 8.15523 17.9742 7.66741 18.104C7.17955 18.2355 7.01585 18.4942 6.76821 18.8875L6.76744 18.8887C6.47225 19.3553 6.10434 19.9368 5.16484 20.1882C4.90765 20.2573 4.67521 20.2836 4.4625 20.2799C3.89952 20.2701 3.48099 20.05 3.12589 19.863C2.71449 19.647 2.44339 19.5055 1.95478 19.6346C1.63491 19.7202 1.30545 19.5304 1.22064 19.2106C1.13423 18.8907 1.32395 18.562 1.64462 18.4765C2.5833 18.2237 3.19236 18.5432 3.681 18.7995L3.68358 18.8008C4.09496 19.0176 4.36766 19.1599 4.8547 19.0292C5.34174 18.8986 5.50544 18.6398 5.75388 18.2466L5.75431 18.2459C6.04958 17.7784 6.4166 17.1973 7.35726 16.9451C8.29598 16.6935 8.90633 17.0137 9.3962 17.2711C9.8068 17.487 10.0787 17.6286 10.5665 17.4987C11.0537 17.3682 11.2176 17.1092 11.4655 16.7177L11.4665 16.7161C11.7619 16.2485 12.1296 15.6669 13.0707 15.4146C14.012 15.1624 14.6213 15.482 15.1103 15.7384L15.1113 15.739L15.1172 15.7421C15.5261 15.9563 15.7969 16.0982 16.2848 15.9666C16.7737 15.8361 16.9384 15.5763 17.1871 15.1838L17.188 15.1825C17.4833 14.7149 17.8519 14.1333 18.793 13.881Z" />
</svg>