<svg width="22" height="22" viewBox="0 0 22 22" fill="#000" xmlns="http://www.w3.org/2000/svg">
    <path
        d="M8.15016 6.16961C8.15315 6.29645 8.20624 6.41695 8.29782 6.50476L12.7584 10.9654L8.29782 15.426C8.25178 15.4708 8.21519 15.5244 8.19023 15.5836C8.16527 15.6427 8.15244 15.7063 8.1525 15.7705C8.15262 15.866 8.18119 15.9592 8.23456 16.0384C8.28793 16.1175 8.36368 16.1789 8.45213 16.2148C8.54058 16.2507 8.63772 16.2594 8.73113 16.2398C8.82454 16.2202 8.90999 16.1732 8.97657 16.1048L13.7766 11.3048C13.8665 11.2147 13.9171 11.0927 13.9171 10.9654C13.9171 10.8381 13.8665 10.716 13.7766 10.626L8.97657 5.82601C8.90959 5.75617 8.82307 5.70819 8.72835 5.68838C8.63363 5.66857 8.53513 5.67785 8.44578 5.715C8.35642 5.75215 8.28038 5.81544 8.22763 5.89656C8.17488 5.97769 8.14787 6.07287 8.15016 6.16961Z" />
</svg>