<svg xmlns="http://www.w3.org/2000/svg" viewBox="0 0 32 32" fill="#000">
  <!-- <path fill="none" stroke="#FFF" stroke-linecap="round" stroke-linejoin="round" stroke-miterlimit="10" stroke-width="2"
    d="M649 137.999h26v18h-14m-8 0h-4v-14M661 156l-8 6v-6" /> -->
  <path
    d="M16 30c-3.74 0-7.255-1.456-9.899-4.101A13.954 13.954 0 0 1 3.547 9.595a1 1 0 0 1 1.779.915 11.96 11.96 0 0 0 2.189 13.975A11.917 11.917 0 0 0 16 28c3.205 0 6.219-1.248 8.485-3.515S28 19.205 28 16c0-3.206-1.248-6.219-3.515-8.485S19.206 4 16 4a11.921 11.921 0 0 0-8.485 3.515.999.999 0 1 1-1.414-1.414A13.907 13.907 0 0 1 16 2c3.74 0 7.256 1.457 9.899 4.101A13.903 13.903 0 0 1 30 16c0 3.739-1.456 7.255-4.101 9.899A13.902 13.902 0 0 1 16 30z" />
  <path
    d="M20.999 21a.994.994 0 0 1-.624-.219l-5-4A1 1 0 0 1 15 16V8a1 1 0 0 1 2 0v7.52l4.625 3.699A1 1 0 0 1 20.999 21z" />
</svg>