<svg xmlns="http://www.w3.org/2000/svg" xml:space="preserve" viewBox="0 0 115.28 122.88">
  <path fill-rule="evenodd"
    d="M25.38 57h64.88V37.34H69.59c-2.17 0-5.19-1.17-6.62-2.6-1.43-1.43-2.3-4.01-2.3-6.17V7.64H8.15c-.18 0-.32.09-.41.18-.15.1-.19.23-.19.42v106.45c0 .14.09.32.18.41.09.14.28.18.41.18h81.51c.18 0 .17-.09.27-.18.14-.09.33-.28.33-.41v-11.16H25.38c-4.14 0-7.56-3.4-7.56-7.56V64.55c0-4.15 3.4-7.55 7.56-7.55zm16.61 26.67v-4.75h10.9v9.71c-2.09 1.42-3.93 2.4-5.53 2.91-1.6.52-3.51.77-5.71.77-2.71 0-4.92-.46-6.63-1.39-1.7-.92-3.02-2.3-3.96-4.12-.94-1.82-1.41-3.92-1.41-6.29 0-2.49.52-4.65 1.54-6.5 1.03-1.84 2.53-3.24 4.51-4.19 1.55-.74 3.63-1.1 6.24-1.1 2.52 0 4.4.23 5.65.69 1.25.46 2.29 1.16 3.11 2.13.82.96 1.45 2.18 1.86 3.65l-6.79 1.22c-.28-.87-.75-1.53-1.42-1.99-.67-.46-1.52-.69-2.56-.69-1.54 0-2.77.54-3.69 1.61-.92 1.07-1.38 2.77-1.38 5.09 0 2.47.46 4.23 1.39 5.29.92 1.06 2.22 1.59 3.88 1.59.79 0 1.54-.11 2.25-.34.71-.23 1.53-.62 2.45-1.16v-2.14h-4.7zm15.1-14.57h11.73c2.56 0 4.47.61 5.74 1.82 1.27 1.22 1.91 2.95 1.91 5.2 0 2.31-.7 4.11-2.08 5.41-1.39 1.3-3.51 1.95-6.35 1.95h-3.87v8.45h-7.08V69.1zm7.08 9.75h1.74c1.37 0 2.33-.24 2.89-.71.55-.47.83-1.08.83-1.82 0-.72-.24-1.32-.72-1.82s-1.38-.75-2.71-.75h-2.02v5.1h-.01zm14.47-9.75h7.78l4.04 7.02 3.93-7.02h7.68l-7.09 11.06 7.76 11.77H94.8l-4.48-7.33-4.51 7.33h-7.87l7.87-11.9-7.17-10.93zM97.79 57h9.93c4.16 0 7.56 3.41 7.56 7.56v31.42c0 4.15-3.41 7.56-7.56 7.56h-9.93v13.55c0 1.61-.65 3.04-1.7 4.1a5.74 5.74 0 0 1-4.1 1.7H5.81a5.74 5.74 0 0 1-4.1-1.7 5.74 5.74 0 0 1-1.7-4.1V5.85c0-1.61.65-3.04 1.7-4.1a5.81 5.81 0 0 1 4.1-1.7h58.72c.13-.05.27-.05.41-.05.64 0 1.29.28 1.75.69h.09c.09.05.14.09.23.18L97 31.23c.51.51.88 1.2.88 1.98 0 .23-.05.41-.09.65V57zM67.52 27.97V8.94l21.43 21.7H70.19c-.74 0-1.38-.32-1.89-.78-.46-.46-.78-1.15-.78-1.89z"
    clip-rule="evenodd" />
</svg>