<svg xmlns="http://www.w3.org/2000/svg" fill="#000" viewBox="0 0 41 32">
  <g clip-path="url(#a)">
    <path
      d="M.448 6.409s3.067-3.248 7.207-4.584l3.164 8.124s-4.086 1.47-7.422 4.605L.553 6.709l-.105-.3Zm10.371 3.54 3.412 8.759s2.683-.954 4.53-.954c1.847 0 3.678.271 3.678.271L19.962 8.71s-.7-.099-1.563-.099c-4.135 0-7.58 1.338-7.58 1.338ZM6.72 23.776l2.89 8.21s3.997-3.832 7.804-4.91l-3.182-8.368c-3.666 1.412-7.512 5.068-7.512 5.068ZM17.676.111l2.287 8.598c1.85 0 6.994 2.521 6.994 2.521l-2.028-8.879c-1.163-.435-4.208-2.096-7.253-2.24Zm4.763 17.913 2.355 8.851c1.186 0 4.586 1.449 6.065 1.449l-1.988-8.702c-1.914-.498-5.012-1.399-6.432-1.598Zm4.518-6.793 1.915 8.392s1.916.354 3.231.354c1.314 0 2.953-.298 2.953-.298l-.622-7.684s-1.269.394-2.807.394c-2.402 0-4.67-1.158-4.67-1.158Zm6.805-7.56.673 8.323S37.564 11.208 41 8.61L40.998 0c-3.945 3.022-7.236 3.671-7.236 3.671Zm1.295 16.008s3.014-.559 5.941-2.259v9.051c-3.117 1.496-5.261 1.767-5.261 1.767l-.68-8.559Z" />
  </g>
  <defs>
    <clipPath id="a">
      <path fill="#fff" d="M0 0h41v32H0z" />
    </clipPath>
  </defs>
</svg>