<svg xmlns="http://www.w3.org/2000/svg" fill-rule="evenodd" stroke-linejoin="round" stroke-miterlimit="2"
    clip-rule="evenodd" viewBox="0 0 512 512">
    <path fill-rule="nonzero"
        d="M267.32 340.57c-44.818 0-81.28-36.462-81.28-81.28s36.462-81.28 81.28-81.28c44.817 0 81.279 36.462 81.279 81.28s-36.462 81.28-81.279 81.28M118.12 482c-24.587 0-44.59-20.003-44.59-44.59 0-24.587 20.003-44.59 44.59-44.59 24.587 0 44.59 20.003 44.59 44.59 0 24.587-20.003 44.59-44.59 44.59M34.21 83.5c0-29.5 24-53.5 53.5-53.5 29.494 0 53.49 24 53.49 53.5 0 29.494-23.996 53.49-53.49 53.49-29.5 0-53.5-23.996-53.5-53.49m412.099 37c17.364 0 31.49 14.126 31.49 31.49 0 17.369-14.126 31.5-31.49 31.5-17.369 0-31.5-14.131-31.5-31.5 0-17.364 14.131-31.49 31.5-31.49m-44.46 73.915c11.207 11.739 26.989 19.075 44.46 19.075 33.907 0 61.49-27.589 61.49-61.5 0-33.906-27.583-61.49-61.49-61.49-33.911 0-61.5 27.584-61.5 61.49 0 5.628.776 11.076 2.198 16.259l-32.596 21.853c-20.404-25.631-51.86-42.092-87.091-42.092-26.243 0-50.388 9.137-69.436 24.388l-44.024-38.046c10.859-14.093 17.34-31.725 17.34-50.852C171.2 37.458 133.747 0 87.71 0 41.668 0 4.21 37.458 4.21 83.5c0 46.036 37.458 83.49 83.5 83.49 16.012 0 30.98-4.54 43.702-12.388l45.751 39.538c-13.281 18.326-21.123 40.838-21.123 65.15 0 27.971 10.377 53.562 27.478 73.133l-30.6 39.04a74.117 74.117 0 0 0-34.798-8.643c-41.129 0-74.59 33.461-74.59 74.59 0 41.129 33.461 74.59 74.59 74.59 41.129 0 74.59-33.461 74.59-74.59 0-17.745-6.24-34.055-16.625-46.873l30.054-38.343c17.567 11.607 38.596 18.376 61.181 18.376 61.359 0 111.279-49.92 111.279-111.28 0-15.382-3.138-30.045-8.806-43.383zM449.08 464.04c-15.842 0-28.73-12.888-28.73-28.73 0-15.836 12.888-28.72 28.73-28.72 15.836 0 28.72 12.884 28.72 28.72 0 15.842-12.884 28.73-28.72 28.73m0-87.45c-32.384 0-58.73 26.342-58.73 58.72 0 32.384 26.346 58.73 58.73 58.73 32.378 0 58.72-26.346 58.72-58.73 0-32.378-26.342-58.72-58.72-58.72" />
</svg>