<svg xmlns="http://www.w3.org/2000/svg" width="32" height="32" viewBox="0 0 24 24" fill="#FF6F5A">
    <path
        d="M12 13q-.425 0-.712-.288T11 12q0-.425.288-.712T12 11q.425 0 .713.288T13 12q0 .425-.288.713T12 13m0 9q-2.075 0-3.9-.788t-3.175-2.137q-1.35-1.35-2.137-3.175T2 12q0-2.075.788-3.9t2.137-3.175q1.35-1.35 3.175-2.137T12 2q2.075 0 3.9.788t3.175 2.137q1.35 1.35 2.138 3.175T22 12q0 2.075-.788 3.9t-2.137 3.175q-1.35 1.35-3.175 2.138T12 22m0-2q3.35 0 5.675-2.325T20 12q0-3.35-2.325-5.675T12 4Q8.65 4 6.325 6.325T4 12q0 3.35 2.325 5.675T12 20m0 0q-3.35 0-5.675-2.325T4 12q0-3.35 2.325-5.675T12 4q3.35 0 5.675 2.325T20 12q0 3.35-2.325 5.675T12 20m1.675-5.85q.15-.075.275-.2t.2-.275l2.925-6.25q.125-.25-.062-.438t-.438-.062l-6.25 2.925q-.15.075-.275.2t-.2.275l-2.925 6.25q-.125.25.063.438t.437.062z" />
</svg>