<svg xmlns="http://www.w3.org/2000/svg" xml:space="preserve" viewBox="0 0 128 128">
  <path fill="none" d="M0 0h128v128H0z" clip-rule="evenodd" />
  <radialGradient id="a" cx="19.111" cy="128.444" r="163.552" gradientUnits="userSpaceOnUse">
    <stop offset="0" stop-color="#ffb140" />
    <stop offset=".256" stop-color="#ff5445" />
    <stop offset=".599" stop-color="#fc2b82" />
    <stop offset="1" stop-color="#8e40b7" />
  </radialGradient>
  <path fill="url(#a)" fill-rule="evenodd"
    d="M105.843 29.837a7.68 7.68 0 1 1-15.36 0 7.68 7.68 0 0 1 15.36 0zM64 85.333c-11.782 0-21.333-9.551-21.333-21.333 0-11.782 9.551-21.333 21.333-21.333 11.782 0 21.333 9.551 21.333 21.333 0 11.782-9.551 21.333-21.333 21.333zm0-54.198c-18.151 0-32.865 14.714-32.865 32.865 0 18.151 14.714 32.865 32.865 32.865 18.151 0 32.865-14.714 32.865-32.865 0-18.151-14.714-32.865-32.865-32.865zm0-19.603c17.089 0 19.113.065 25.861.373 6.24.285 9.629 1.327 11.884 2.204 2.987 1.161 5.119 2.548 7.359 4.788 2.24 2.239 3.627 4.371 4.788 7.359.876 2.255 1.919 5.644 2.204 11.884.308 6.749.373 8.773.373 25.862s-.065 19.113-.373 25.861c-.285 6.24-1.327 9.629-2.204 11.884-1.161 2.987-2.548 5.119-4.788 7.359-2.239 2.24-4.371 3.627-7.359 4.788-2.255.876-5.644 1.919-11.884 2.204-6.748.308-8.772.373-25.861.373-17.09 0-19.114-.065-25.862-.373-6.24-.285-9.629-1.327-11.884-2.204-2.987-1.161-5.119-2.548-7.359-4.788-2.239-2.239-3.627-4.371-4.788-7.359-.876-2.255-1.919-5.644-2.204-11.884-.308-6.749-.373-8.773-.373-25.861 0-17.089.065-19.113.373-25.862.285-6.24 1.327-9.629 2.204-11.884 1.161-2.987 2.548-5.119 4.788-7.359 2.239-2.24 4.371-3.627 7.359-4.788 2.255-.876 5.644-1.919 11.884-2.204 6.749-.308 8.773-.373 25.862-.373zM64 0C46.619 0 44.439.074 37.613.385 30.801.696 26.148 1.778 22.078 3.36c-4.209 1.635-7.778 3.824-11.336 7.382C7.184 14.3 4.995 17.869 3.36 22.078 1.778 26.149.696 30.801.385 37.613.074 44.439 0 46.619 0 64s.074 19.561.385 26.387c.311 6.812 1.393 11.464 2.975 15.535 1.635 4.209 3.824 7.778 7.382 11.336 3.558 3.558 7.127 5.746 11.336 7.382 4.071 1.582 8.723 2.664 15.535 2.975 6.826.311 9.006.385 26.387.385s19.561-.074 26.387-.385c6.812-.311 11.464-1.393 15.535-2.975 4.209-1.636 7.778-3.824 11.336-7.382 3.558-3.558 5.746-7.127 7.382-11.336 1.582-4.071 2.664-8.723 2.975-15.535.311-6.826.385-9.006.385-26.387s-.074-19.561-.385-26.387c-.311-6.812-1.393-11.464-2.975-15.535-1.636-4.209-3.824-7.778-7.382-11.336-3.558-3.558-7.127-5.746-11.336-7.382C101.851 1.778 97.199.696 90.387.385 83.561.074 81.381 0 64 0z"
    clip-rule="evenodd" />
</svg>