<svg width="108" height="32" viewBox="0 0 32 32" fill="#fff" xmlns="http://www.w3.org/2000/svg">
  <path
    d="M31.5526 19.7414C33.619 11.1519 28.3309 2.51368 19.7414 0.447365C11.1519 -1.61895 2.51368 3.66912 0.447365 12.2586C-1.61895 20.8481 3.66912 29.4863 12.2586 31.5526C20.8481 33.619 29.4863 28.3309 31.5526 19.7414Z" />
  <path
    d="M2.3064 15.9981C2.3064 8.44947 8.45096 2.30491 15.9996 2.30491C23.5528 2.30491 29.6928 8.44947 29.6928 15.9981C29.6928 19.0365 28.7176 21.9034 26.8756 24.3097L20.0087 17.4428C20.1802 16.9733 20.266 16.4857 20.266 15.9936C20.266 13.6414 18.3518 11.7272 15.9996 11.7272C13.6474 11.7272 11.7332 13.6414 11.7332 15.9936C11.7332 16.4857 11.819 16.9733 11.9905 17.4428L5.12359 24.3097C3.28158 21.9079 2.3064 19.0365 2.3064 15.9981Z"
    fill="url(#paint0_linear)" />
  <path
    d="M13.4894 19.2307L15.9996 15.3164L18.5098 19.2261L25.3135 26.0299C22.7717 28.3911 19.4714 29.6913 15.9996 29.6913C12.5278 29.6913 9.22748 28.3911 6.68568 26.0299L13.4894 19.2307Z"
    fill="url(#paint1_linear)" />
  <defs>
    <linearGradient id="paint0_linear" x1="15.9995" y1="2.30695" x2="15.9995" y2="29.6917"
      gradientUnits="userSpaceOnUse">
      <stop stop-color="#8FCE3C" />
      <stop offset="1" stop-color="#64A322" />
    </linearGradient>
    <linearGradient id="paint1_linear" x1="15.9995" y1="2.30695" x2="15.9995" y2="29.6917"
      gradientUnits="userSpaceOnUse">
      <stop stop-color="#8FCE3C" />
      <stop offset="1" stop-color="#64A322" />
    </linearGradient>
  </defs>
</svg>