<svg xmlns="http://www.w3.org/2000/svg" viewBox="0 0 576 512" fill="#000">
  <path
    d="M554 33.15 384 95.1 212 35.25c-6.5-2.125-13.19-3.249-20.06-3.249-6.625 0-13.56 1-19.94 3.124L20.12 87.1C8 92.75 0 104.6 0 117.6V464c0 10.89 10.85 19.02 22 14.84l170-63.74 172 60.75c13 4.25 27 4.375 40 .125l151.9-52.88C568 419.2 576 407.4 576 394.4V48.01c0-10.89-10.8-19.05-22-14.86zM224 90.37l128 45.25v286l-128-45.25v-286zM48 417.1v-288l128-44.62v286.3L48 417.1zm480-34.2-128 44.63V141.2l128-47.25V382.9z" />
</svg>