<svg xmlns="http://www.w3.org/2000/svg" width="512" height="512" viewBox="0 0 512 512" fill="#000">
    <g>
        <path
            d="m294.535 293.778-1.18 1.18c-12.982 15.943-40.715 46.646-44.846 51.37-46.026 55.501-72.58 66.13-102.083 68.491-5.311.59-10.622.59-17.113.59C78.567 415.41 29 372.898 29 318.577c0-50.187 35.405-91.519 83.201-96.833 3.54-.59 11.212-1.18 20.063 0 8.26 1.181 23.603 7.676 23.603 15.942-.59 0-1.18 0-1.77-.59-12.392-2.952-18.883-2.362-25.374-1.771-16.522 1.771-27.733 7.085-36.585 13.58-17.702 14.761-30.684 36.017-30.684 61.997 0 41.33 33.045 74.396 72.58 74.396 20.653 0 39.535-8.266 53.107-22.437 2.36-2.362 4.72-4.133 6.49-5.905 18.883-20.075 58.419-63.768 58.419-73.215 0-10.628-23.604-34.836-47.797-49.007-34.814-20.665-35.995-36.607-35.995-49.007 0-38.97 60.188-59.635 118.016-53.73 14.162 51.959 54.877 54.911 61.958 55.502 21.243 1.77 31.865 0 44.256-2.953 12.982-2.952 12.982-6.495 12.982-6.495s4.13 4.724-5.9 11.219c-10.032 6.495-37.176 16.532-55.468 16.532-38.945 0-60.188-16.532-80.25-38.379-44.257 3.543-48.387 16.533-46.027 20.666 6.49 9.447 74.94 56.683 81.43 55.502 7.672-1.181 38.356-27.16 85.562-23.027 53.107 1.18 96.183 44.283 96.183 97.423C481 372.307 438.514 416 382.457 416c-48.387 0-79.07-37.789-70.22-51.369.59.59 1.18 1.181 1.77 1.181 13.573 12.4 36.586 25.98 59.599 25.98 43.666 0 79.07-32.475 79.07-72.625s-29.504-67.31-72.58-71.444c-18.882-1.771-29.503 1.771-41.305 7.676-11.211 5.314-25.963 18.894-37.175 30.113v-.59l-1.77 1.77c-2.36 2.953-4.13 5.314-5.31 7.086Z" />
        <path
            d="M344.244 163c14.275-.596 30.335-13.111 29.74-32.183-.595-19.07-19.628-30.394-36.877-33.374-34.498-5.364-69.59 4.768-79.107 21.455l8.922-2.98c13.085-3.576 26.765-1.788 37.472 4.768 4.758 2.98 5.947 8.94 5.947 10.131C309.747 153.464 329.97 163 344.244 163Z" />
    </g>
</svg>