<svg xmlns="http://www.w3.org/2000/svg" viewBox="0 0 24 24" width="24" height="24" fill="#111111">
  <path
    d="M12.753 24h-1.506a2.212 2.212 0 0 1-2.21-2.21v-.509a9.69 9.69 0 0 1-1.504-.624l-.361.36a2.21 2.21 0 0 1-3.125 0l-1.065-1.064a2.21 2.21 0 0 1 0-3.125l.361-.361a9.689 9.689 0 0 1-.624-1.504h-.51A2.212 2.212 0 0 1 0 12.753v-1.506c0-1.218.991-2.21 2.21-2.21h.509a9.692 9.692 0 0 1 .624-1.504l-.36-.361a2.21 2.21 0 0 1 0-3.125l1.064-1.065a2.21 2.21 0 0 1 3.125 0l.36.361c.484-.25.988-.459 1.505-.624v-.51C9.037.991 10.03 0 11.247 0h1.506c1.218 0 2.21.991 2.21 2.21v.509a9.689 9.689 0 0 1 1.504.624l.361-.36a2.21 2.21 0 0 1 3.125 0l1.065 1.064c.85.85.875 2.25 0 3.125l-.361.36c.25.484.459.987.624 1.505h.51c1.218 0 2.209.992 2.209 2.21v1.506c0 1.218-.991 2.21-2.21 2.21h-.509a9.695 9.695 0 0 1-.624 1.504l.36.361a2.21 2.21 0 0 1 0 3.125l-1.064 1.065a2.21 2.21 0 0 1-3.125 0l-.361-.361c-.483.25-.987.459-1.504.624v.51A2.212 2.212 0 0 1 12.753 24Zm-4.985-4.82a8.285 8.285 0 0 0 2.148.892c.31.08.528.36.528.68v1.039c0 .442.36.803.803.803h1.506c.443 0 .803-.36.803-.803v-1.038c0-.321.217-.601.528-.681a8.284 8.284 0 0 0 2.148-.892.703.703 0 0 1 .855.108l.736.735a.803.803 0 0 0 1.135 0l1.065-1.065a.803.803 0 0 0 0-1.135l-.735-.736a.703.703 0 0 1-.108-.855 8.286 8.286 0 0 0 .892-2.148c.08-.31.36-.528.68-.528h1.039c.442 0 .803-.36.803-.803v-1.506a.804.804 0 0 0-.803-.803h-1.038a.703.703 0 0 1-.681-.528 8.286 8.286 0 0 0-.892-2.148.703.703 0 0 1 .108-.855l.735-.735a.803.803 0 0 0 0-1.136L18.96 3.977a.803.803 0 0 0-1.136 0l-.736.735a.703.703 0 0 1-.855.108 8.289 8.289 0 0 0-2.148-.892.703.703 0 0 1-.528-.68V2.209a.804.804 0 0 0-.803-.803h-1.506a.804.804 0 0 0-.803.803v1.039c0 .32-.217.6-.528.68a8.288 8.288 0 0 0-2.148.892.703.703 0 0 1-.855-.108l-.735-.735a.803.803 0 0 0-1.136 0L3.977 5.041a.803.803 0 0 0 0 1.135l.735.736a.703.703 0 0 1 .108.855 8.286 8.286 0 0 0-.892 2.148.703.703 0 0 1-.68.528H2.209a.804.804 0 0 0-.803.803v1.506c0 .443.36.803.803.803h1.039c.32 0 .6.217.68.528a8.29 8.29 0 0 0 .892 2.148.703.703 0 0 1-.108.855l-.735.736a.803.803 0 0 0 0 1.135l1.065 1.065a.803.803 0 0 0 1.135 0l.736-.735a.707.707 0 0 1 .855-.108Z" />
  <path
    d="M12 17.222A5.228 5.228 0 0 1 6.778 12 5.228 5.228 0 0 1 12 6.778 5.228 5.228 0 0 1 17.222 12 5.228 5.228 0 0 1 12 17.222Zm0-9.038A3.82 3.82 0 0 0 8.184 12 3.82 3.82 0 0 0 12 15.815 3.82 3.82 0 0 0 15.816 12 3.82 3.82 0 0 0 12 8.184Z" />
</svg>